<?xml version="1.0" encoding="utf-8"?>
<!-- Generator: Adobe Illustrator 15.0.0, SVG Export Plug-In . SVG Version: 6.00 Build 0)  -->
<!DOCTYPE svg PUBLIC "-//W3C//DTD SVG 1.1//EN" "http://www.w3.org/Graphics/SVG/1.1/DTD/svg11.dtd">
<svg version="1.1" id="Ebene_1" xmlns="http://www.w3.org/2000/svg" xmlns:xlink="http://www.w3.org/1999/xlink" x="0px" y="0px"
	 width="24px" height="24px" viewBox="13 13 24 24" enable-background="new 13 13 24 24" xml:space="preserve">
<g>
	<path fill="none" d="M35.948,25c0-4.96-3.299-9.15-7.821-10.496C32.649,15.851,35.948,20.041,35.948,25z"/>
	<path fill="#77CC40" d="M14.052,25c0-4.96,3.298-9.15,7.821-10.496C17.35,15.851,14.051,20.04,14.052,25
		c0,6.046,4.901,10.948,10.948,10.948C18.954,35.948,14.052,31.047,14.052,25z"/>
	<path fill="#77CC40" d="M27.14,35.739c5.021-0.995,8.809-5.424,8.809-10.739C35.948,30.314,32.161,34.744,27.14,35.739z"/>
	<path fill="#AAAAAA" d="M35.948,25c0-4.96-3.299-9.15-7.821-10.496c-0.302-0.09-0.609-0.167-0.921-0.23
		c-0.713-0.146-1.45-0.222-2.206-0.222s-1.494,0.077-2.207,0.222c-0.312,0.064-0.619,0.141-0.92,0.23
		C17.35,15.851,14.052,20.04,14.052,25c0,6.046,4.902,10.948,10.948,10.948c0.378,0,0.751-0.02,1.119-0.057
		c0.345-0.035,0.686-0.086,1.021-0.152C32.161,34.744,35.948,30.314,35.948,25z M27.43,20.771h1.487v0.661H27.43V20.771z
		 M27.43,23.652h1.487v0.661H27.43V23.652z M24.483,32.864c-1.845,0-3.346-1.501-3.346-3.346c0-1.195,0.628-2.281,1.652-2.883
		v-7.584c0-0.934,0.76-1.693,1.693-1.693s1.693,0.76,1.693,1.693v7.584c1.024,0.601,1.651,1.688,1.651,2.883
		C27.828,31.363,26.328,32.864,24.483,32.864z M29.99,25.754H27.43v-0.661h2.561V25.754z M29.99,22.873H27.43v-0.661h2.561V22.873z
		 M29.99,19.992H27.43v-0.661h2.561V19.992z"/>
	<path fill="#AAAAAA" d="M25.697,27.127l-0.182-0.092v-7.983c0-0.57-0.463-1.033-1.032-1.033s-1.033,0.463-1.033,1.033v7.983
		l-0.181,0.092c-0.908,0.461-1.471,1.378-1.471,2.392c0,1.48,1.205,2.685,2.685,2.685c1.48,0,2.685-1.204,2.685-2.685
		C27.168,28.505,26.604,27.588,25.697,27.127z"/>
</g>
</svg>
