<?xml version="1.0" encoding="utf-8"?>
<!-- Generator: Adobe Illustrator 15.0.0, SVG Export Plug-In . SVG Version: 6.00 Build 0)  -->
<!DOCTYPE svg PUBLIC "-//W3C//DTD SVG 1.1//EN" "http://www.w3.org/Graphics/SVG/1.1/DTD/svg11.dtd">
<svg version="1.1" id="Ebene_1" xmlns="http://www.w3.org/2000/svg" xmlns:xlink="http://www.w3.org/1999/xlink" x="0px" y="0px"
	 width="24px" height="24px" viewBox="13 13 24 24" enable-background="new 13 13 24 24" xml:space="preserve">
<g>
	<path fill="none" d="M35.948,25c0-5.291-3.753-9.705-8.742-10.726C32.195,15.295,35.948,19.71,35.948,25z"/>
	<path fill="#77CC40" d="M14.052,25c0-5.291,3.753-9.705,8.742-10.726C17.805,15.295,14.051,19.709,14.052,25
		c0,6.046,4.901,10.948,10.948,10.948C18.954,35.948,14.052,31.047,14.052,25z"/>
	<path fill="#77CC40" d="M26.119,35.892C31.64,35.331,35.948,30.67,35.948,25C35.948,30.669,31.64,35.331,26.119,35.892z"/>
	<path fill="#AAAAAA" d="M35.948,25c0-5.291-3.753-9.705-8.742-10.726c-0.713-0.146-1.45-0.222-2.206-0.222
		s-1.494,0.077-2.207,0.222c-4.989,1.021-8.742,5.435-8.742,10.726c0,6.046,4.902,10.948,10.948,10.948
		c0.378,0,0.751-0.02,1.119-0.057C31.64,35.331,35.948,30.669,35.948,25z M22.172,33.731l2.37-7.335h-4.916l8.502-9.572l-2.371,7.16
		h4.914L22.172,33.731z"/>
</g>
</svg>
