<?xml version="1.0" encoding="utf-8"?>
<!-- Generator: Adobe Illustrator 15.0.0, SVG Export Plug-In . SVG Version: 6.00 Build 0)  -->
<!DOCTYPE svg PUBLIC "-//W3C//DTD SVG 1.1//EN" "http://www.w3.org/Graphics/SVG/1.1/DTD/svg11.dtd">
<svg version="1.1" id="Ebene_1" xmlns="http://www.w3.org/2000/svg" xmlns:xlink="http://www.w3.org/1999/xlink" x="0px" y="0px"
	 width="24px" height="24px" viewBox="13 13 24 24" enable-background="new 13 13 24 24" xml:space="preserve">
<g>
	<path fill="none" d="M13.656,25.185c0-6.263,5.078-11.34,11.34-11.34c5.48,0,10.052,3.887,11.11,9.055
		c-1.058-5.167-5.63-9.055-11.11-9.055C18.733,13.844,13.656,18.922,13.656,25.185c0,5.48,3.887,10.053,9.055,11.11
		C17.543,35.237,13.656,30.665,13.656,25.185z"/>
	<path fill="#AAAAAA" d="M36.106,22.899c-1.058-5.167-5.63-9.055-11.11-9.055c-6.263,0-11.34,5.077-11.34,11.34
		c0,5.48,3.887,10.053,9.055,11.11c0.738,0.151,1.503,0.23,2.286,0.23c6.263,0,11.34-5.077,11.34-11.341
		C36.337,24.402,36.258,23.637,36.106,22.899z M21.205,30.791c-5.842-0.291-2.021-6.441-1.278-8.161
		c0.764-1.776,1.37-4.733,1.37-4.733s0.25,2.025,1.275,4.637C23.184,24.099,26.796,31.068,21.205,30.791z M26.301,18.827
		c0.484-1.037,0.871-2.762,0.871-2.762s0.163,1.18,0.814,2.706c0.39,0.915,2.7,4.819-0.87,4.819
		C23.542,23.59,25.828,19.832,26.301,18.827z M27.367,33.322c-3.719,0-1.342-3.91-0.853-4.956c0.511-1.079,0.912-2.877,0.912-2.877
		s0.169,1.229,0.845,2.817C28.68,29.257,31.083,33.322,27.367,33.322z"/>
</g>
</svg>
