<?xml version="1.0" encoding="utf-8"?>
<!-- Generator: Adobe Illustrator 15.0.0, SVG Export Plug-In . SVG Version: 6.00 Build 0)  -->
<!DOCTYPE svg PUBLIC "-//W3C//DTD SVG 1.1//EN" "http://www.w3.org/Graphics/SVG/1.1/DTD/svg11.dtd">
<svg version="1.1" id="Ebene_1" xmlns="http://www.w3.org/2000/svg" xmlns:xlink="http://www.w3.org/1999/xlink" x="0px" y="0px"
	 width="24px" height="24px" viewBox="13 13 24 24" enable-background="new 13 13 24 24" xml:space="preserve">
<g>
	<path fill="none" d="M13.954,25C13.954,25,13.954,25,13.954,25c0-0.146,0.016-0.289,0.022-0.434
		C13.97,24.71,13.954,24.853,13.954,25z"/>
	<path fill="none" d="M25,13.953c-5.719,0-10.424,4.347-10.989,9.917C14.577,18.3,19.281,13.954,25,13.953
		c6.101,0,11.046,4.946,11.046,11.047c0,5.719-4.347,10.424-9.917,10.99c5.57-0.566,9.918-5.271,9.918-10.991
		C36.047,18.899,31.101,13.953,25,13.953z"/>
	<path fill="#77CC40" d="M13.976,24.565c0.009-0.232,0.012-0.467,0.035-0.695C13.987,24.099,13.984,24.333,13.976,24.565z"/>
	<path fill="#77CC40" d="M36.046,25c0-6.101-4.945-11.046-11.046-11.046c-5.719,0-10.423,4.346-10.989,9.917
		c-0.023,0.229-0.026,0.463-0.035,0.695C13.97,24.71,13.954,24.853,13.954,25c0,6.1,4.946,11.047,11.046,11.047
		c0.381,0,0.758-0.02,1.129-0.057C31.699,35.424,36.046,30.719,36.046,25z M25.568,32.551c0,0,2.217-3.008,2.102-5.02
		c-0.118-2.075-1.979-3.703-1.979-3.703c-0.119,1.68-2.312,3.338-2.832,5.053c-0.824,2.723,1.075,4.277,1.075,4.277
		c-2.928-0.189-4.703-3.057-3.528-6.934c0.6-1.938,4.052-5.385,3.329-10.014c2.776,3.16,7.088,8.339,7.15,11.098
		C30.92,30.025,28.193,32.719,25.568,32.551z"/>
	<path fill="#77CC40" d="M13.954,25L13.954,25c0,6.1,4.946,11.047,11.046,11.047C18.9,36.047,13.954,31.1,13.954,25z"/>
</g>
</svg>
